<svg id="Group_14032" data-name="Group 14032" xmlns="http://www.w3.org/2000/svg" xmlns:xlink="http://www.w3.org/1999/xlink" width="270.973" height="73.949" viewBox="0 0 270.973 73.949">
  <defs>
    <clipPath id="clip-path">
      <rect id="Rectangle_4619" data-name="Rectangle 4619" width="270.973" height="73.949" fill="none"/>
    </clipPath>
  </defs>
  <g id="Group_14031" data-name="Group 14031" clip-path="url(#clip-path)">
    <path id="Path_7179" data-name="Path 7179" d="M37.5,62.785v.34c0,2.56-1.194,4.009-3.323,4.009-2.221,0-3.328-1.108-3.328-3.752V45.389c0-7.333-4.518-12.19-11.254-12.19-4.775,0-9.039,3.068-10.147,7.162a27.178,27.178,0,0,0-.682,7.076V63.723c0,2.3-1.365,3.752-3.5,3.752-2.046,0-3.24-1.364-3.24-3.836V32.175c0-3.752.938-5.116,3.411-5.116A3.147,3.147,0,0,1,8.6,29.789c.084.425.17.425.342.425a2.578,2.578,0,0,0,.766-.342,16.3,16.3,0,0,1,10.148-3.493C30,26.379,37.5,34.307,37.5,44.879V62.785Z" transform="translate(0.493 6.391)" fill="#565a5c"/>
    <path id="Path_7180" data-name="Path 7180" d="M64.5,43.875c1.447,0,1.62-.087,1.62-.683,0-5.2-5.37-10.23-11.085-10.23-5.882,0-11.339,5.029-11.339,10.4,0,.425.257.6.766.6h.768Zm-19.525,6.48h-.6c-.425.084-.511.084-.511.512-.087,5.2,5.37,10.146,11.083,10.146a12.053,12.053,0,0,0,8.1-3.07,3.186,3.186,0,0,1,2.388-.937,2.843,2.843,0,0,1,2.984,3.07,3.22,3.22,0,0,1-1.535,2.815,18.111,18.111,0,0,1-12.021,4.435c-10.488-.087-17.82-8.018-17.82-19.7a33.886,33.886,0,0,1,1.619-10.488c2.3-6.052,9.209-10.486,16.37-10.486a17.776,17.776,0,0,1,17.82,17.9c0,4.517-1.109,5.712-5.03,5.712l-22.6.086Z" transform="translate(8.974 6.457)" fill="#565a5c"/>
    <path id="Path_7181" data-name="Path 7181" d="M82.029,27.874c0,.939.087.939,1.278.939,3.752.083,4.947.852,4.947,3.239,0,2.046-1.365,3.24-3.584,3.24H83.138c-1.109,0-1.2.086-1.2.938v.17l-.17,22.425v.425c0,2.475.511,3.157,2.472,3.5l.765.087a2.982,2.982,0,0,1,2.9,3.154c0,2.129-1.539,3.153-4.435,3.153-5.883,0-8.184-2.215-8.184-8.185v-.169l.168-24.217v-.34c0-.766-.255-.938-1.278-.938h-.34c-2.9,0-4.265-1.108-4.265-3.154q0-3.326,4.352-3.324h.425c.939,0,1.193-.171,1.193-1.025v-.511l.087-3.339V23.43c0-2.219,1.193-3.583,3.237-3.583,1.964,0,3.244,1.364,3.244,3.583v.425l-.087,3.85Z" transform="translate(16.856 4.808)" fill="#565a5c"/>
    <path id="Path_7182" data-name="Path 7182" d="M115.529,30.251c-.683-2.3-1.791-3.324-3.5-3.324-1.789,0-2.728.766-3.411,2.9,0,.17-.084.084-.084.425l-7.245,21.826c-.173.6-.257.6-.429.683-.17,0-.253,0-.427-.509L93.872,30.081s-.084,0-.084-.342c-.514-1.959-1.452-2.727-3.244-2.727a3.175,3.175,0,0,0-3.324,3.068,4.691,4.691,0,0,0,.34,1.7v.171l9.38,31.463c.853,2.815,1.7,3.666,3.668,3.666s2.811-.766,3.919-3.752l.087-.425,6.99-21.147.086-.256.084-.425c0-.087.087-.087.171-.087.169,0,.342,0,.425.6l7.247,21.233a2.614,2.614,0,0,1,.171.6c.851,2.729,1.79,3.581,3.667,3.581,1.66,0,2.524-.626,3.321-2.573L115.614,30.51c0-.087,0-.087-.086-.258" transform="translate(21.13 6.523)" fill="#565a5c"/>
    <path id="Path_7183" data-name="Path 7183" d="M113.632,30.428c-.011-.06-.021-.119-.031-.179v0c-.683-2.3-1.791-3.324-3.5-3.324-1.79,0-2.728.766-3.411,2.9,0,.17-.084.084-.084.425L99.364,52.078c-.142.489-3.041,8.77-4.189,11.828.8,2.41,1.666,3.18,3.507,3.18,1.958,0,2.811-.766,3.919-3.752l.087-.425,6.99-21.147.086-.256,3.837-10.79c.024-.067.045-.128.066-.191-.009-.032-.029-.065-.035-.1" transform="translate(23.057 6.523)" fill="#565a5c"/>
    <path id="Path_7184" data-name="Path 7184" d="M172.891,62.771v.512c0,2.9-.938,4.092-3.155,4.092s-3.24-1.193-3.24-3.922V31.735c0-2.984,1.109-4.435,3.24-4.435a3.077,3.077,0,0,1,2.729,1.537c.342.511.513.511.682.511.084,0,.17,0,.512-.256a15,15,0,0,1,7.162-2.3,13.241,13.241,0,0,1,8.185,2.981,3.28,3.28,0,0,1-1.619,6.055c-.6,0-.938-.17-1.878-.769-1.872-1.363-3.41-2.046-4.688-2.046-4.945,0-7.929,3.752-7.929,9.891V62.771Z" transform="translate(40.335 6.49)" fill="#565a5c"/>
    <path id="Path_7185" data-name="Path 7185" d="M196.331,48.7v.17c.086.682.086.6.343.682.169.087.339-.084.85-.511L218.67,30.629l.256-.256a4.49,4.49,0,0,1,2.984-1.364,3.189,3.189,0,0,1,3.07,3.154,3.4,3.4,0,0,1-1.534,2.728l-.34.257-8.953,8.014-.086.084-.256.257c0,.171-.086.084-.086.253a.512.512,0,0,0,.086.343l.169.256.087.255,9.548,18.931c.089.342.256.342.343.6a3.827,3.827,0,0,1,.511,1.706A3.163,3.163,0,0,1,221.058,69c-1.448,0-2.047-.258-2.985-2.134l-.086-.253-9.206-17.738-.084-.17-.088-.171c0-.083-.084-.083-.253-.083a1.151,1.151,0,0,0-.856.425.082.082,0,0,1-.083.086l-10.573,9.38-.169.17c-.257.257-.257.257-.257.6V64.99c-.086,2.729-1.28,4.093-3.41,4.093-2.3,0-3.155-1.108-3.155-4.434V23.4a3.435,3.435,0,0,1,3.411-3.667c2.045,0,3.068,1.365,3.068,4.009V48.7Z" transform="translate(45.993 4.781)" fill="#565a5c"/>
    <path id="Path_7186" data-name="Path 7186" d="M4.429,5.825c0,.334.03.334.455.334,1.335.03,1.76.3,1.76,1.153A1.12,1.12,0,0,1,5.369,8.465H4.824c-.4,0-.425.03-.425.333v.061l-.061,7.979v.152c0,.88.181,1.122.88,1.244l.273.03a1.062,1.062,0,0,1,1.031,1.123c0,.758-.545,1.122-1.578,1.122-2.093,0-2.912-.788-2.912-2.912v-.061l.061-8.615V8.8c0-.272-.092-.333-.456-.333h-.12C.484,8.465,0,8.07,0,7.342Q0,6.158,1.547,6.159H1.7c.334,0,.425-.061.425-.364V5.613l.031-4.155V1.275A1.119,1.119,0,0,1,3.306,0,1.135,1.135,0,0,1,4.458,1.275v.152l-.03,4.338Z" fill="#f89000"/>
    <path id="Path_7187" data-name="Path 7187" d="M9.558,7.027V7.3c0,.12.031.091.091.12.031-.03.092-.03.152-.06.031-.061.061-.031.122-.092.031-.091.091-.06.183-.152A5.164,5.164,0,0,1,13.41,6.026a6.261,6.261,0,0,1,6.372,6.462V19.01c0,.909-.425,1.4-1.184,1.4-.788,0-1.092-.394-1.092-1.456V13.336c0-2.4-.455-3.4-1.971-4.368a3.989,3.989,0,0,0-2.093-.607A3.839,3.839,0,0,0,9.77,11.182,9.3,9.3,0,0,0,9.558,13.4v.152l-.03,5.461v.212A1.119,1.119,0,0,1,8.4,20.466c-.728,0-1.153-.486-1.153-1.4V1.475c0-.909.4-1.426,1.123-1.426.758,0,1.183.486,1.183,1.365V7.027Z" transform="translate(1.757 0.012)" fill="#f89000"/>
    <path id="Path_7188" data-name="Path 7188" d="M29.377,10.939c.516,0,.576-.03.576-.242A4.017,4.017,0,0,0,26.01,7.056a4.066,4.066,0,0,0-4.035,3.7c0,.152.091.211.273.211h.272ZM22.43,13.245h-.212c-.152.03-.183.03-.183.181a3.97,3.97,0,0,0,3.944,3.611,4.288,4.288,0,0,0,2.882-1.093,1.137,1.137,0,0,1,.85-.333A1.011,1.011,0,0,1,30.772,16.7a1.145,1.145,0,0,1-.545,1,6.446,6.446,0,0,1-4.277,1.578c-3.732-.031-6.34-2.852-6.34-7.008a12.039,12.039,0,0,1,.576-3.732,6.368,6.368,0,0,1,12.164,2.64c0,1.607-.394,2.032-1.789,2.032l-8.04.03Z" transform="translate(4.75 1.166)" fill="#f89000"/>
    <path id="Path_7189" data-name="Path 7189" d="M40.009,5.825c0,.334.03.334.455.334,1.335.03,1.76.3,1.76,1.153a1.12,1.12,0,0,1-1.275,1.153H40.4c-.4,0-.425.03-.425.333v.061l-.061,7.979v.152c0,.88.181,1.122.88,1.244l.273.03A1.062,1.062,0,0,1,42.1,19.385c0,.758-.545,1.122-1.578,1.122-2.093,0-2.912-.788-2.912-2.912v-.061l.061-8.615V8.8c0-.272-.092-.333-.456-.333H37.1c-1.032,0-1.517-.4-1.517-1.123q0-1.183,1.547-1.183h.152c.334,0,.425-.061.425-.364V5.613l.031-4.155V1.275A1.119,1.119,0,0,1,38.886,0a1.135,1.135,0,0,1,1.153,1.275v.152l-.03,4.338Z" transform="translate(8.62)" fill="#f89000"/>
    <path id="Path_7190" data-name="Path 7190" d="M45.108,17.662v.181c0,1.032-.334,1.457-1.123,1.457s-1.153-.425-1.153-1.4V6.619c0-1.062.4-1.578,1.153-1.578a1.094,1.094,0,0,1,.971.547c.122.181.181.181.242.181.031,0,.061,0,.183-.091a5.345,5.345,0,0,1,2.548-.82,4.715,4.715,0,0,1,2.913,1.062,1.167,1.167,0,0,1-.578,2.154c-.211,0-.333-.061-.667-.273a3.064,3.064,0,0,0-1.668-.728c-1.759,0-2.821,1.335-2.821,3.519v7.068Z" transform="translate(10.376 1.177)" fill="#f89000"/>
    <path id="Path_7191" data-name="Path 7191" d="M60.61,10.939c.516,0,.576-.03.576-.242a4.017,4.017,0,0,0-3.943-3.641,4.066,4.066,0,0,0-4.035,3.7c0,.152.091.211.273.211h.272Zm-6.947,2.306h-.212c-.152.03-.183.03-.183.181a3.97,3.97,0,0,0,3.944,3.611,4.288,4.288,0,0,0,2.882-1.093,1.137,1.137,0,0,1,.85-.333A1.011,1.011,0,0,1,62,16.7a1.145,1.145,0,0,1-.545,1,6.446,6.446,0,0,1-4.277,1.578c-3.732-.031-6.34-2.852-6.34-7.008a12.039,12.039,0,0,1,.576-3.732,6.368,6.368,0,0,1,12.164,2.64c0,1.607-.394,2.032-1.789,2.032l-8.04.03Z" transform="translate(12.317 1.166)" fill="#f89000"/>
    <path id="Path_7192" data-name="Path 7192" d="M72.284,8.482A4,4,0,0,0,69.19,7a4.147,4.147,0,0,0-4.005,3.367,9.582,9.582,0,0,0-.091,1.518,8.118,8.118,0,0,0,.334,2.609,4.08,4.08,0,0,0,3.791,2.487,3.862,3.862,0,0,0,3.277-1.7,5.184,5.184,0,0,0,.7-3.277v-.3c0-1.7-.181-2.335-.911-3.216M75.5,15.824a1.441,1.441,0,0,0,.545,1.214l.122.121a.876.876,0,0,1,.334.729A1.131,1.131,0,0,1,75.47,19.1a2.27,2.27,0,0,1-1.912-1.3c-.03-.091-.091-.091-.152-.091s-.122,0-.242.122a6.211,6.211,0,0,1-3.944,1.4,6.629,6.629,0,0,1-5.005-2.365,7.071,7.071,0,0,1-1.457-4.885,6.863,6.863,0,0,1,1.518-4.855A6.4,6.4,0,0,1,72.769,5.9a.2.2,0,0,0,.152.06.225.225,0,0,0,.152.031c.122.03.183-.031.243-.273a1.109,1.109,0,0,1,2.184.334v9.768Z" transform="translate(15.204 1.166)" fill="#f89000"/>
    <path id="Path_7193" data-name="Path 7193" d="M79.789,5.825c0,.334.03.334.455.334,1.335.03,1.76.3,1.76,1.153a1.12,1.12,0,0,1-1.275,1.153h-.545c-.4,0-.425.03-.425.333v.061L79.7,16.838v.152c0,.88.181,1.122.88,1.244l.273.03a1.062,1.062,0,0,1,1.031,1.123c0,.758-.545,1.122-1.578,1.122-2.093,0-2.912-.788-2.912-2.912v-.061l.061-8.615V8.8c0-.272-.092-.333-.456-.333h-.12c-1.032,0-1.517-.4-1.517-1.123q0-1.183,1.547-1.183h.152c.334,0,.425-.061.425-.364V5.613l.031-4.155V1.275A1.119,1.119,0,0,1,78.666,0a1.135,1.135,0,0,1,1.153,1.275v.152l-.03,4.338Z" transform="translate(18.257)" fill="#f89000"/>
    <path id="Path_7194" data-name="Path 7194" d="M101.238,17.752V17.9a1.229,1.229,0,0,1-1.243,1.364c-.7,0-1.123-.484-1.123-1.334V10.229A2.725,2.725,0,0,0,95.96,7.164c-1.911,0-2.973,1.245-2.973,3.491v7.311a1.181,1.181,0,0,1-1.184,1.3,1.145,1.145,0,0,1-1.153-1.3V10.624q0-3.458-2.821-3.46-2.912,0-2.912,3.552V17.63c0,1.124-.364,1.639-1.153,1.639-.819,0-1.153-.424-1.153-1.545V6.407c0-.909.425-1.425,1.184-1.425a1,1,0,0,1,.909.516l.091.091c.031.12.092.12.153.12.06.032.152-.029.364-.15a4.89,4.89,0,0,1,2.517-.668,5.532,5.532,0,0,1,3.641,1.4c.212.183.3.214.394.214s.152-.031.273-.153A5.858,5.858,0,0,1,95.99,4.86a5,5,0,0,1,5.249,4.916v7.977Z" transform="translate(20.013 1.177)" fill="#f89000"/>
    <path id="Path_7195" data-name="Path 7195" d="M109.645,10.939c.516,0,.576-.03.576-.242a4.017,4.017,0,0,0-3.943-3.641,4.066,4.066,0,0,0-4.035,3.7c0,.152.091.211.273.211h.272ZM102.7,13.245h-.212c-.152.03-.183.03-.183.181a3.97,3.97,0,0,0,3.944,3.611,4.288,4.288,0,0,0,2.882-1.093,1.137,1.137,0,0,1,.85-.333A1.011,1.011,0,0,1,111.04,16.7a1.145,1.145,0,0,1-.545,1,6.446,6.446,0,0,1-4.277,1.578c-3.732-.031-6.34-2.852-6.34-7.008a12.039,12.039,0,0,1,.576-3.732,6.368,6.368,0,0,1,12.165,2.64c0,1.607-.4,2.032-1.79,2.032l-8.04.03Z" transform="translate(24.196 1.166)" fill="#f89000"/>
    <path id="Path_7196" data-name="Path 7196" d="M125.049,17.667v.122c0,.909-.425,1.426-1.184,1.426-.788,0-1.183-.4-1.183-1.335v-6.4c0-2.609-1.607-4.338-4-4.338a3.71,3.71,0,0,0-3.61,2.549,9.622,9.622,0,0,0-.243,2.518V18a1.2,1.2,0,0,1-1.243,1.334c-.728,0-1.153-.484-1.153-1.365V6.776c0-1.334.334-1.82,1.214-1.82a1.117,1.117,0,0,1,1.122.971c.031.152.061.152.122.152a.971.971,0,0,0,.273-.122,5.79,5.79,0,0,1,3.61-1.244,6.272,6.272,0,0,1,6.28,6.583v6.37Z" transform="translate(27.237 1.142)" fill="#f89000"/>
    <path id="Path_7197" data-name="Path 7197" d="M128.971,5.825c0,.334.03.334.455.334,1.335.03,1.759.3,1.759,1.153a1.119,1.119,0,0,1-1.273,1.153h-.547c-.394,0-.425.03-.425.333v.061l-.061,7.979v.152c0,.88.183,1.122.881,1.244l.273.03a1.062,1.062,0,0,1,1.031,1.123c0,.758-.547,1.122-1.578,1.122-2.093,0-2.912-.788-2.912-2.912v-.061l.06-8.615V8.8c0-.272-.091-.333-.455-.333h-.12c-1.032,0-1.517-.4-1.517-1.123q0-1.183,1.547-1.183h.152c.334,0,.425-.061.425-.364V5.613l.031-4.155V1.275A1.119,1.119,0,0,1,127.848,0,1.135,1.135,0,0,1,129,1.275v.152l-.03,4.338Z" transform="translate(30.171)" fill="#f89000"/>
    <path id="Path_7198" data-name="Path 7198" d="M150.793,32.864c-5.644,0-10.431,3.676-11.287,8.55a25.171,25.171,0,0,0-.256,4.19,54.87,54.87,0,0,0,.343,6.241,11.2,11.2,0,0,0,21.889.77,30.392,30.392,0,0,0,.512-6.071v-.77c-.17-8.295-4.189-12.911-11.2-12.911m17.7,14.279c0,12.142-7.268,20.349-17.956,20.349-7.953,0-15.136-5.3-17.015-12.654a36.1,36.1,0,0,1-.856-8.037c0-9.062,2.394-13.851,9.064-17.87a16.824,16.824,0,0,1,8.978-2.565c10.175,0,17.528,8.293,17.785,20.094Z" transform="translate(32.139 6.387)" fill="#565a5c"/>
    <path id="Path_7199" data-name="Path 7199" d="M128.648,34.176a3.417,3.417,0,1,1-2.964-3.817,3.416,3.416,0,0,1,2.964,3.817m-2.473-7.717A8.261,8.261,0,0,0,117.6,38.024l5.364,13.937,8.649-12.174a8.261,8.261,0,0,0-5.441-13.328" transform="translate(28.316 6.394)" fill="#f89000"/>
  </g>
</svg>
