<?xml version="1.0" encoding="UTF-8"?> <svg xmlns="http://www.w3.org/2000/svg" width="1874" height="800" viewBox="0 0 1874 800" fill="none"><path d="M1265.78 318.154C1270.98 294.036 1262.95 270.122 1242.86 249.274C1211.91 216.981 1156.15 196.338 1101.1 196.338C1100.15 196.338 1096.14 196.338 1090.23 196.338C1054.55 196.542 946.336 197.155 892.701 196.338C892.228 196.133 891.519 196.542 891.047 196.951C890.574 197.359 890.338 197.768 890.338 198.381L890.102 598.78C890.102 599.802 891.047 600.62 892.228 600.62H981.305C982.014 600.62 982.486 600.415 982.959 600.007C983.431 599.598 983.667 599.189 983.667 598.576L984.14 238.237C984.14 238.237 984.14 228.631 995.718 225.156C1023.83 216.777 1084.09 213.302 1126.38 239.464C1154.26 256.632 1168.2 283.203 1167.96 317.949C1167.73 345.133 1156.62 367.411 1134.41 383.763C1101.57 408.085 1052.66 413.399 1033.52 410.946C1032.81 410.742 1032.1 410.946 1031.63 411.355C1031.16 411.764 1030.92 412.173 1030.92 412.786L1031.16 426.276C1031.16 427.298 1032.1 428.115 1033.05 428.115C1076.05 433.429 1241.92 429.75 1265.78 318.154Z" fill="#545454"></path><path d="M1411.57 191.022C1411.09 190.409 1410.38 190 1409.68 190C1408.97 190 1408.02 190.409 1407.79 191.022L1362.18 261.536C1361.95 262.149 1361.71 262.763 1362.18 263.171L1438.97 418.712H1253.02C1252.31 418.712 1251.61 419.121 1251.13 419.734L1130.16 596.939C1129.69 597.552 1129.69 598.37 1130.16 598.779C1130.63 599.188 1131.34 599.801 1132.05 599.801H1212.62C1213.57 599.801 1214.27 599.392 1214.75 598.574L1296.5 441.399H1450.55L1536.79 597.757C1537.27 598.37 1537.97 598.779 1538.68 598.779H1641.7C1642.41 598.779 1643.12 598.37 1643.59 597.961C1644.06 597.348 1644.06 596.735 1643.59 596.122L1411.57 191.022Z" fill="#545454"></path><path d="M774.084 196.543C773.375 196.543 772.666 196.747 772.194 197.36L667.05 323.469L600.42 197.769C599.948 197.156 599.239 196.543 598.294 196.543H488.424C487.716 196.543 487.007 196.952 486.534 197.36C486.062 197.974 486.062 198.587 486.298 199.2L597.821 406.246L507.563 514.164L351.856 197.565C351.62 196.952 350.675 196.338 349.73 196.338H233.245C232.536 196.338 231.827 196.747 231.354 197.156C230.882 197.769 230.882 198.382 231.354 198.996L464.797 606.548C465.033 607.161 465.742 607.57 466.687 607.57C467.396 607.774 468.105 607.366 468.577 606.752L616.96 444.467L714.306 607.979C714.542 608.592 715.251 609.001 716.196 609.001H716.432C717.141 609.001 717.85 608.796 718.323 608.183L771.485 548.501C771.958 547.888 771.958 547.275 771.721 546.662L686.189 368.639L837.643 198.996C838.115 198.382 838.352 197.565 837.879 196.952C837.406 196.338 836.698 195.93 835.989 195.93H774.084V196.543Z" fill="#545454"></path></svg> 